<svg width="16" height="16" viewBox="0 0 16 16" fill="none" xmlns="http://www.w3.org/2000/svg">
<g clip-path="url(#clip0_5_1170)">
<path d="M8 0C3.582 0 0 3.582 0 8C0 12.418 3.582 16 8 16C12.418 16 16 12.418 16 8C16 3.582 12.418 0 8 0ZM8 14.5C4.14667 14.5 1.5 11.8533 1.5 8C1.5 4.14667 4.14667 1.5 8 1.5C11.8533 1.5 14.5 4.14667 14.5 8C14.5 11.8533 11.8533 14.5 8 14.5ZM7.5 4.87467V8.43733L10.3753 11.3127L11.0833 10.604L8.458 7.97933V4.87467H7.49933H7.5Z" fill="#2684FF"/>
</g>
<defs>
<clipPath id="clip0_5_1170">
<rect width="16" height="16" fill="white"/>
</clipPath>
</defs>
</svg>
