<svg width="64" height="64" viewBox="0 0 64 64" fill="none" xmlns="http://www.w3.org/2000/svg">
<path d="M0 14C0 6.26801 6.26801 0 14 0H50C57.732 0 64 6.26801 64 14V50C64 57.732 57.732 64 50 64H14C6.26801 64 0 57.732 0 50V14Z" fill="url(#paint0_linear_5_1155)"/>
<path d="M24 20V36" stroke="white" stroke-width="2.66667" stroke-linecap="round" stroke-linejoin="round"/>
<path d="M40 28C42.2091 28 44 26.2091 44 24C44 21.7909 42.2091 20 40 20C37.7909 20 36 21.7909 36 24C36 26.2091 37.7909 28 40 28Z" stroke="white" stroke-width="2.66667" stroke-linecap="round" stroke-linejoin="round"/>
<path d="M24 44C26.2091 44 28 42.2091 28 40C28 37.7909 26.2091 36 24 36C21.7909 36 20 37.7909 20 40C20 42.2091 21.7909 44 24 44Z" stroke="white" stroke-width="2.66667" stroke-linecap="round" stroke-linejoin="round"/>
<path d="M40 28C40 31.1826 38.7357 34.2348 36.4853 36.4853C34.2348 38.7357 31.1826 40 28 40" stroke="white" stroke-width="2.66667" stroke-linecap="round" stroke-linejoin="round"/>
<defs>
<linearGradient id="paint0_linear_5_1155" x1="0" y1="0" x2="64" y2="64" gradientUnits="userSpaceOnUse">
<stop stop-color="#155DFC"/>
<stop offset="1" stop-color="#4F39F6"/>
</linearGradient>
</defs>
</svg>
